<svg width="22" height="22" viewBox="0 0 22 22" fill="none" xmlns="http://www.w3.org/2000/svg">
<path d="M20.5 5.5V13H18.5V6.5L13.5 3L8.5 6.5V8H6.5V5.5L13.5 0.5L20.5 5.5ZM15 6H14V7H15V6ZM13 6H12V7H13V6ZM15 8H14V9H15V8ZM13 8H12V9H13V8ZM18.5 15H16.5C16.5 13.8 15.75 12.72 14.63 12.3L8.47 10H0.5V21H6.5V19.56L13.5 21.5L21.5 19V18C21.5 16.34 20.16 15 18.5 15ZM2.5 19V12H4.5V19H2.5ZM13.47 19.41L6.5 17.48V12H8.11L13.93 14.17C14.27 14.3 14.5 14.63 14.5 15C14.5 15 12.51 14.95 12.2 14.85L9.82 14.06L9.19 15.96L11.57 16.75C12.08 16.92 12.61 17.01 13.15 17.01H18.5C18.89 17.01 19.24 17.24 19.4 17.57L13.47 19.41Z" fill="#535766"/>
</svg>
