<svg width="233" height="45" viewBox="0 0 233 45" fill="none" xmlns="http://www.w3.org/2000/svg">
<path fill-rule="evenodd" clip-rule="evenodd" d="M167.061 12.0496C170.429 12.1495 173.595 13.5285 175.796 16.1368C178.114 18.885 179.833 22.5247 178.836 26.0081C177.884 29.3354 174.27 30.5778 171.226 32.1035C168.14 33.6502 164.937 35.8459 161.73 34.5814C158.311 33.2333 156.372 29.5979 155.589 25.9375C154.815 22.3215 155.332 18.4265 157.668 15.5988C159.934 12.8552 163.551 11.9454 167.061 12.0496ZM165.267 24.9906H162.763C161.95 24.9906 161.291 24.3177 161.291 23.4877C161.291 22.6578 161.95 21.9847 162.763 21.9847H163.57H163.912C164.74 21.9785 165.409 21.2962 165.418 20.4523V20.1643V19.2741C165.418 18.4438 166.077 17.7708 166.89 17.7708C167.703 17.7708 168.362 18.4438 168.362 19.2741L168.361 21.9953H170.877C171.692 21.9953 172.352 22.653 172.352 23.4647C172.352 24.2763 171.692 24.9336 170.877 24.9336H170.069H169.726C168.897 24.9399 168.226 25.6067 168.216 26.4318V26.7132V27.5839C168.216 28.3955 167.556 29.0531 166.742 29.0531C165.927 29.0531 165.266 28.3955 165.266 27.5839L165.267 24.9906Z" fill="white"/>
<path d="M177.361 28.1191C177.758 29.2936 177.547 30.5426 178.241 31.6101C178.653 32.2443 179.176 33.3807 180 33.3807" stroke="white" stroke-width="3" stroke-linecap="round"/>
<path d="M27.6813 7.5625V36H22.7789L10.025 15.6289V36H5.12266V7.5625H10.025L22.818 27.9727V7.5625H27.6813ZM42.0688 36.3906C40.5063 36.3906 39.0935 36.1367 37.8305 35.6289C36.5805 35.1081 35.5128 34.3854 34.6273 33.4609C33.755 32.5365 33.0844 31.4492 32.6156 30.1992C32.1469 28.9492 31.9125 27.6016 31.9125 26.1562V25.375C31.9125 23.7214 32.1534 22.224 32.6352 20.8828C33.1169 19.5417 33.7875 18.3958 34.6469 17.4453C35.5063 16.4818 36.5219 15.7461 37.6938 15.2383C38.8656 14.7305 40.1352 14.4766 41.5023 14.4766C43.0128 14.4766 44.3344 14.7305 45.4672 15.2383C46.6 15.7461 47.5375 16.4622 48.2797 17.3867C49.0349 18.2982 49.5948 19.3854 49.9594 20.6484C50.337 21.9115 50.5258 23.3047 50.5258 24.8281V26.8398H34.1977V23.4609H45.8773V23.0898C45.8513 22.2435 45.682 21.4492 45.3695 20.707C45.0701 19.9648 44.6078 19.3659 43.9828 18.9102C43.3578 18.4544 42.5245 18.2266 41.4828 18.2266C40.7016 18.2266 40.005 18.3958 39.393 18.7344C38.794 19.0599 38.2927 19.5352 37.8891 20.1602C37.4854 20.7852 37.1729 21.5404 36.9516 22.4258C36.7432 23.2982 36.6391 24.2812 36.6391 25.375V26.1562C36.6391 27.0807 36.7628 27.9401 37.0102 28.7344C37.2706 29.5156 37.6482 30.1992 38.143 30.7852C38.6378 31.3711 39.2367 31.8333 39.9398 32.1719C40.643 32.4974 41.4438 32.6602 42.3422 32.6602C43.475 32.6602 44.4841 32.4323 45.3695 31.9766C46.255 31.5208 47.0232 30.8763 47.6742 30.043L50.1547 32.4453C49.699 33.1094 49.1065 33.7474 48.3773 34.3594C47.6482 34.9583 46.7563 35.4466 45.7016 35.8242C44.6599 36.2018 43.449 36.3906 42.0688 36.3906ZM67.4328 14.8672H71.7102V35.4141C71.7102 37.3151 71.3065 38.9297 70.4992 40.2578C69.6919 41.5859 68.5656 42.5951 67.1203 43.2852C65.675 43.9883 64.0018 44.3398 62.1008 44.3398C61.2935 44.3398 60.3951 44.2227 59.4055 43.9883C58.4289 43.7539 57.4784 43.3763 56.5539 42.8555C55.6425 42.3477 54.8807 41.6771 54.2688 40.8438L56.4758 38.0703C57.231 38.9688 58.0643 39.6263 58.9758 40.043C59.8872 40.4596 60.8443 40.668 61.8469 40.668C62.9276 40.668 63.8456 40.4661 64.6008 40.0625C65.369 39.6719 65.9615 39.0924 66.3781 38.3242C66.7948 37.556 67.0031 36.6185 67.0031 35.5117V19.6523L67.4328 14.8672ZM53.0773 25.668V25.2578C53.0773 23.6562 53.2727 22.1979 53.6633 20.8828C54.0539 19.5547 54.6138 18.4154 55.343 17.4648C56.0721 16.5013 56.9576 15.7656 57.9992 15.2578C59.0409 14.737 60.2193 14.4766 61.5344 14.4766C62.9016 14.4766 64.0669 14.724 65.0305 15.2188C66.007 15.7135 66.8208 16.4232 67.4719 17.3477C68.1229 18.2591 68.6307 19.3529 68.9953 20.6289C69.3729 21.8919 69.6529 23.2982 69.8352 24.8477V26.1562C69.6659 27.6667 69.3794 29.0469 68.9758 30.2969C68.5721 31.5469 68.0383 32.6276 67.3742 33.5391C66.7102 34.4505 65.8898 35.1536 64.9133 35.6484C63.9497 36.1432 62.8104 36.3906 61.4953 36.3906C60.2063 36.3906 59.0409 36.1237 57.9992 35.5898C56.9706 35.056 56.0852 34.3073 55.343 33.3438C54.6138 32.3802 54.0539 31.2474 53.6633 29.9453C53.2727 28.6302 53.0773 27.2044 53.0773 25.668ZM57.7844 25.2578V25.668C57.7844 26.6315 57.8755 27.5299 58.0578 28.3633C58.2531 29.1966 58.5461 29.9323 58.9367 30.5703C59.3404 31.1953 59.8482 31.6901 60.4602 32.0547C61.0852 32.4062 61.8208 32.582 62.6672 32.582C63.774 32.582 64.6789 32.3477 65.382 31.8789C66.0982 31.4102 66.6451 30.7786 67.0227 29.9844C67.4133 29.1771 67.6867 28.2786 67.843 27.2891V23.7539C67.7648 22.9857 67.6021 22.2695 67.3547 21.6055C67.1203 20.9414 66.8013 20.362 66.3977 19.8672C65.994 19.3594 65.4862 18.9688 64.8742 18.6953C64.2622 18.4089 63.5396 18.2656 62.7063 18.2656C61.8599 18.2656 61.1242 18.4479 60.4992 18.8125C59.8742 19.1771 59.3599 19.6784 58.9563 20.3164C58.5656 20.9544 58.2727 21.6966 58.0773 22.543C57.882 23.3893 57.7844 24.2943 57.7844 25.2578ZM75.3945 25.668V25.2188C75.3945 23.6953 75.6159 22.2826 76.0586 20.9805C76.5013 19.6654 77.1393 18.526 77.9727 17.5625C78.819 16.5859 79.8477 15.8307 81.0586 15.2969C82.2826 14.75 83.6628 14.4766 85.1992 14.4766C86.7487 14.4766 88.1289 14.75 89.3398 15.2969C90.5638 15.8307 91.599 16.5859 92.4453 17.5625C93.2917 18.526 93.9362 19.6654 94.3789 20.9805C94.8216 22.2826 95.043 23.6953 95.043 25.2188V25.668C95.043 27.1914 94.8216 28.6042 94.3789 29.9062C93.9362 31.2083 93.2917 32.3477 92.4453 33.3242C91.599 34.2878 90.5703 35.043 89.3594 35.5898C88.1484 36.1237 86.7747 36.3906 85.2383 36.3906C83.6888 36.3906 82.3021 36.1237 81.0781 35.5898C79.8672 35.043 78.8385 34.2878 77.9922 33.3242C77.1458 32.3477 76.5013 31.2083 76.0586 29.9062C75.6159 28.6042 75.3945 27.1914 75.3945 25.668ZM80.1016 25.2188V25.668C80.1016 26.6185 80.1992 27.5169 80.3945 28.3633C80.5898 29.2096 80.8958 29.9518 81.3125 30.5898C81.7292 31.2279 82.263 31.7292 82.9141 32.0938C83.5651 32.4583 84.3398 32.6406 85.2383 32.6406C86.1107 32.6406 86.8659 32.4583 87.5039 32.0938C88.1549 31.7292 88.6888 31.2279 89.1055 30.5898C89.5221 29.9518 89.8281 29.2096 90.0234 28.3633C90.2318 27.5169 90.3359 26.6185 90.3359 25.668V25.2188C90.3359 24.2812 90.2318 23.3958 90.0234 22.5625C89.8281 21.7161 89.5156 20.9674 89.0859 20.3164C88.6693 19.6654 88.1354 19.1576 87.4844 18.793C86.8464 18.4154 86.0846 18.2266 85.1992 18.2266C84.3138 18.2266 83.5456 18.4154 82.8945 18.793C82.2565 19.1576 81.7292 19.6654 81.3125 20.3164C80.8958 20.9674 80.5898 21.7161 80.3945 22.5625C80.1992 23.3958 80.1016 24.2812 80.1016 25.2188ZM119.619 25.3945H112.216V21.5078H119.619C120.908 21.5078 121.949 21.2995 122.744 20.8828C123.538 20.4661 124.117 19.8932 124.482 19.1641C124.86 18.4219 125.048 17.5755 125.048 16.625C125.048 15.7266 124.86 14.8867 124.482 14.1055C124.117 13.3112 123.538 12.6732 122.744 12.1914C121.949 11.7096 120.908 11.4688 119.619 11.4688H113.72V36H108.818V7.5625H119.619C121.819 7.5625 123.688 7.95312 125.224 8.73438C126.774 9.5026 127.952 10.5703 128.759 11.9375C129.567 13.2917 129.97 14.8411 129.97 16.5859C129.97 18.4219 129.567 19.9974 128.759 21.3125C127.952 22.6276 126.774 23.6367 125.224 24.3398C123.688 25.043 121.819 25.3945 119.619 25.3945ZM138.245 6V36H133.557V6H138.245ZM137.424 24.6523L135.901 24.6328C135.914 23.1745 136.116 21.8268 136.506 20.5898C136.91 19.3529 137.47 18.2786 138.186 17.3672C138.915 16.4427 139.788 15.7331 140.803 15.2383C141.819 14.7305 142.945 14.4766 144.182 14.4766C145.224 14.4766 146.161 14.6198 146.995 14.9062C147.841 15.1927 148.57 15.6549 149.182 16.293C149.794 16.918 150.256 17.7383 150.569 18.7539C150.894 19.7565 151.057 20.9805 151.057 22.4258V36H146.33V22.3867C146.33 21.3711 146.181 20.5638 145.881 19.9648C145.595 19.3659 145.172 18.9362 144.612 18.6758C144.052 18.4023 143.368 18.2656 142.561 18.2656C141.715 18.2656 140.966 18.4349 140.315 18.7734C139.677 19.112 139.143 19.5742 138.713 20.1602C138.284 20.7461 137.958 21.4232 137.737 22.1914C137.528 22.9596 137.424 23.7799 137.424 24.6523ZM189.232 18.8906V36H184.525V14.8672H189.017L189.232 18.8906ZM195.697 14.7305L195.658 19.1055C195.371 19.0534 195.059 19.0143 194.72 18.9883C194.395 18.9622 194.069 18.9492 193.744 18.9492C192.936 18.9492 192.227 19.0664 191.615 19.3008C191.003 19.5221 190.489 19.8477 190.072 20.2773C189.668 20.694 189.356 21.2018 189.134 21.8008C188.913 22.3997 188.783 23.0703 188.744 23.8125L187.67 23.8906C187.67 22.5625 187.8 21.332 188.06 20.1992C188.321 19.0664 188.711 18.0703 189.232 17.2109C189.766 16.3516 190.43 15.681 191.224 15.1992C192.032 14.7174 192.962 14.4766 194.017 14.4766C194.304 14.4766 194.61 14.5026 194.935 14.5547C195.274 14.6068 195.528 14.6654 195.697 14.7305ZM203.053 19.1641V36H198.346V14.8672H202.78L203.053 19.1641ZM202.291 24.6523L200.69 24.6328C200.69 23.1745 200.872 21.8268 201.237 20.5898C201.601 19.3529 202.135 18.2786 202.838 17.3672C203.541 16.4427 204.414 15.7331 205.455 15.2383C206.51 14.7305 207.728 14.4766 209.108 14.4766C210.071 14.4766 210.95 14.6198 211.745 14.9062C212.552 15.1797 213.248 15.6159 213.834 16.2148C214.433 16.8138 214.889 17.582 215.202 18.5195C215.527 19.457 215.69 20.5898 215.69 21.918V36H210.983V22.3281C210.983 21.2995 210.827 20.4922 210.514 19.9062C210.215 19.3203 209.778 18.9036 209.205 18.6562C208.646 18.3958 207.975 18.2656 207.194 18.2656C206.308 18.2656 205.553 18.4349 204.928 18.7734C204.316 19.112 203.815 19.5742 203.424 20.1602C203.034 20.7461 202.747 21.4232 202.565 22.1914C202.383 22.9596 202.291 23.7799 202.291 24.6523ZM215.397 23.4023L213.19 23.8906C213.19 22.6146 213.366 21.4102 213.717 20.2773C214.082 19.1315 214.609 18.1289 215.299 17.2695C216.002 16.3971 216.868 15.7135 217.897 15.2188C218.926 14.724 220.104 14.4766 221.432 14.4766C222.513 14.4766 223.476 14.6263 224.323 14.9258C225.182 15.2122 225.911 15.668 226.51 16.293C227.109 16.918 227.565 17.7318 227.877 18.7344C228.19 19.724 228.346 20.9219 228.346 22.3281V36H223.62V22.3086C223.62 21.2409 223.463 20.4141 223.151 19.8281C222.851 19.2422 222.422 18.8385 221.862 18.6172C221.302 18.3828 220.631 18.2656 219.85 18.2656C219.121 18.2656 218.476 18.4023 217.916 18.6758C217.37 18.9362 216.907 19.3073 216.53 19.7891C216.152 20.2578 215.866 20.7982 215.67 21.4102C215.488 22.0221 215.397 22.6862 215.397 23.4023Z" fill="white"/>
</svg>
